<svg xmlns="http://www.w3.org/2000/svg" xmlns:xlink="http://www.w3.org/1999/xlink" width="276" height="276" viewBox="0 0 276 276">
  <defs>
    <path id="path-3" fill-rule="evenodd" d="M113.42857143 87.35064935h58.23376623c2.2076601 0 4 1.7923399 4 4v107.58441559c0 2.2076601-1.7923399 4-4 4h-58.23376623c-2.2076601 0-4-1.7923399-4-4V91.35064935c0-2.2076601 1.7923399-4 4-4z"/>
    <filter id="filter-4" width="200%" height="200%" x="-50%" y="-50%" color-interpolation-filters="sRGB" filterUnits="userSpaceOnUse">
      <feOffset dx="0" dy="4" in="SourceAlpha" result="shadow-1-feOffset-shadow"/>
      <feGaussianBlur in="shadow-1-feOffset-shadow" result="shadow-1-feGaussianBlur-shadow" stdDeviation="6.024"/>
      <feColorMatrix in="shadow-1-feGaussianBlur-shadow" result="shadow-1-feColorMatrix-shadow" type="matrix" values="0 0 0 0 0.7058823529411765  0 0 0 0 0.6235294117647059  0 0 0 0 0.9725490196078431  0 0 0 0.1552666083916084 0"/>
    </filter>
    <path id="path-5" fill-rule="evenodd" d="M118.62337662 92.54545455h47.84415585c2.2076601 0 4 1.7923399 4 4v97.19480519c0 2.2076601-1.7923399 4-4 4h-47.84415585c-2.2076601 0-4-1.7923399-4-4v-97.1948052c0-2.2076601 1.7923399-4 4-4z"/>
    <linearGradient id="linearGradient-6" x1="143.361" x2="143.361" y1="181.38" y2="92.545" gradientUnits="userSpaceOnUse">
      <stop offset="0" stop-color="rgb(210,48,120)"/>
      <stop offset=".726" stop-color="rgb(254,97,97)"/>
      <stop offset="1" stop-color="rgb(255,121,85)"/>
    </linearGradient>
    <linearGradient id="linearGradient-8" x1="118.776" x2="148.662" y1="186.072" y2="-97.642" gradientUnits="userSpaceOnUse">
      <stop offset="0" stop-color="rgb(255,255,255)" stop-opacity="0"/>
      <stop offset="1" stop-color="rgb(255,255,255)"/>
    </linearGradient>
    <path id="path-17" fill-rule="evenodd" d="M92.68830872 92h16c1.1000061 0 2 .8999939 2 2v12c0 1.1000061-.8999939 2-2 2h-16c-1.1000061 0-2-.8999939-2-2l.0099945-12c0-1.1000061.8899994-2 1.9900055-2zm8 9l8-5v-2l-8 5-8-5v2l8 5z"/>
    <linearGradient id="linearGradient-18" x1="100.981" x2="100.981" y1="105.512" y2="92" gradientUnits="userSpaceOnUse">
      <stop offset="0" stop-color="rgb(210,48,120)"/>
      <stop offset=".726" stop-color="rgb(254,97,97)"/>
      <stop offset="1" stop-color="rgb(255,121,85)"/>
    </linearGradient>
    <path id="path-20" fill-rule="evenodd" d="M151 136h50.54545455c1.10383004 0 2 .89616995 2 2v40.15584416c0 1.10383004-.89616996 2-2 2H151c-1.10383005 0-2-.89616996-2-2V138c0-1.10383005.89616995-2 2-2z"/>
    <filter id="filter-21" width="200%" height="200%" x="-50%" y="-50%" color-interpolation-filters="sRGB" filterUnits="userSpaceOnUse">
      <feOffset dx="0" dy="4" in="SourceAlpha" result="shadow-1-feOffset-shadow"/>
      <feGaussianBlur in="shadow-1-feOffset-shadow" result="shadow-1-feGaussianBlur-shadow" stdDeviation="6.024"/>
      <feColorMatrix in="shadow-1-feGaussianBlur-shadow" result="shadow-1-feColorMatrix-shadow" type="matrix" values="0 0 0 0 0.7058823529411765  0 0 0 0 0.6235294117647059  0 0 0 0 0.9725490196078431  0 0 0 0.1552666083916084 0"/>
    </filter>
    <path id="path-22" fill-rule="evenodd" d="M163 123h62.23376623c1.10383005 0 2 .89616995 2 2v40.15584416c0 1.10383004-.89616995 2-2 2H163c-1.10383005 0-2-.89616996-2-2V125c0-1.10383005.89616995-2 2-2z"/>
    <filter id="filter-23" width="200%" height="200%" x="-50%" y="-50%" color-interpolation-filters="sRGB" filterUnits="userSpaceOnUse">
      <feOffset dx="0" dy="4" in="SourceAlpha" result="shadow-1-feOffset-shadow"/>
      <feGaussianBlur in="shadow-1-feOffset-shadow" result="shadow-1-feGaussianBlur-shadow" stdDeviation="6.024"/>
      <feColorMatrix in="shadow-1-feGaussianBlur-shadow" result="shadow-1-feColorMatrix-shadow" type="matrix" values="0 0 0 0 0.7058823529411765  0 0 0 0 0.6235294117647059  0 0 0 0 0.9725490196078431  0 0 0 0.1552666083916084 0"/>
    </filter>
  </defs>
  <g>
    <ellipse cx="138" cy="138" fill="rgb(244,50,127)" fill-opacity=".05" rx="138" ry="138"/>
    <ellipse cx="138" cy="138" fill="rgb(244,50,127)" fill-opacity=".1" rx="100" ry="100"/>
    <g>
      <use fill="black" stroke="black" stroke-opacity="0" stroke-width="0" filter="url(#filter-4)" xlink:href="#path-3"/>
      <use fill="rgb(255,254,254)" xlink:href="#path-3"/>
    </g>
    <g>
      <g>
        <use fill="rgb(233,72,109)" xlink:href="#path-5"/>
        <use fill="url(#linearGradient-6)" xlink:href="#path-5"/>
      </g>
      <g opacity=".5">
        <path fill="url(#linearGradient-8)" fill-rule="evenodd" d="M170.05132276 118.8075606l-39.39043264 80.12248784h-19.9336174v-21.5826951l39.63047786-86.1006001S165.5140188 89.1389788 170.46753247 92c4.95351367 2.8610212 2.13385962 12.09410447 2.13385962 12.09410447l-2.55006933 14.71345613z"/>
      </g>
      <path fill="rgb(254,255,252)" fill-rule="evenodd" d="M129.31168831 89.94805195h25.16883117c1.65574507 0 3 1.34425492 3 3v1.79220779c0 1.65574507-1.34425493 3-3 3h-25.16883117c-1.65574507 0-3-1.34425493-3-3v-1.7922078c0-1.65574507 1.34425493-3 3-3z"/>
      <path fill="rgb(255,255,255)" fill-rule="evenodd" d="M135.1038961 191.24675325H149.987013c.55191502 0 1 .44808497 1 1v.5974026c0 .55191502-.44808498 1-1 1H135.1038961c-.55191502 0-1-.44808498-1-1v-.5974026c0-.55191503.44808498-1 1-1z"/>
    </g>
    <g opacity=".404">
      <ellipse cx="110.5" cy="196.5" fill="rgb(255,255,255)" rx="17.5" ry="17.5"/>
      <rect width="38" height="7" x="95" y="207" fill="rgb(255,255,255)" rx="0" ry="0"/>
      <ellipse cx="130.5" cy="202.5" fill="rgb(255,255,255)" rx="11.5" ry="11.5"/>
      <ellipse cx="93.5" cy="204.5" fill="rgb(255,255,255)" rx="9.5" ry="9.5"/>
    </g>
    <g opacity=".036">
      <ellipse cx="110.377" cy="110.377" fill="rgb(8,8,8)" rx="23.377" ry="23.377"/>
    </g>
    <ellipse cx="100.377" cy="100.377" fill="rgb(255,255,255)" rx="23.377" ry="23.377"/>
    <g>
      <g>
        <use fill="rgb(233,72,109)" xlink:href="#path-17"/>
        <use fill="url(#linearGradient-18)" xlink:href="#path-17"/>
      </g>
      <path fill="none" d="M88.68831169 88h24v24h-24V88z"/>
    </g>
    <g>
      <g opacity=".404">
        <use fill="black" stroke="black" stroke-opacity="0" stroke-width="0" filter="url(#filter-21)" xlink:href="#path-20"/>
        <use fill="rgb(255,254,254)" xlink:href="#path-20"/>
      </g>
      <g>
        <use fill="black" stroke="black" stroke-opacity="0" stroke-width="0" filter="url(#filter-23)" xlink:href="#path-22"/>
        <use fill="rgb(255,254,254)" xlink:href="#path-22"/>
      </g>
      <path fill="rgb(244,50,127)" fill-rule="evenodd" d="M177.58441558 133.38961039h35.66233767c.55191502 0 1 .44808498 1 1v.5974026c0 .55191502-.44808498 1-1 1h-35.66233767c-.55191502 0-1-.44808498-1-1v-.5974026c0-.55191502.44808498-1 1-1z"/>
      <path fill="rgb(226,227,228)" fill-rule="evenodd" d="M177.58441558 143.77922078h35.66233767c.55191502 0 1 .44808497 1 1v.5974026c0 .55191502-.44808498 1-1 1h-35.66233767c-.55191502 0-1-.44808498-1-1v-.5974026c0-.55191503.44808498-1 1-1z"/>
      <path fill="rgb(226,227,228)" fill-rule="evenodd" d="M183.42857143 154.16883117h23.97402597c.55191503 0 1 .44808497 1 1v.5974026c0 .55191502-.44808497 1-1 1h-23.97402597c-.55191503 0-1-.44808498-1-1v-.5974026c0-.55191503.44808497-1 1-1z"/>
    </g>
  </g>
</svg>
