<svg xmlns="http://www.w3.org/2000/svg" xmlns:xlink="http://www.w3.org/1999/xlink" width="179" height="179" viewBox="0 0 179 179">
  <defs>
    <ellipse id="ellipse-3" cx="89.5" cy="89.5" rx="50.5" ry="50.5"/>
    <linearGradient id="linearGradient-4" x1="86.036" x2="122.058" y1="120.695" y2="39" gradientUnits="userSpaceOnUse">
      <stop offset="0" stop-color="rgb(210,48,120)"/>
      <stop offset=".726" stop-color="rgb(254,97,97)"/>
      <stop offset="1" stop-color="rgb(255,121,85)"/>
    </linearGradient>
    <linearGradient id="linearGradient-8" x1="83.415" x2="109.63" y1="98.829" y2="70" gradientUnits="userSpaceOnUse">
      <stop offset="0" stop-color="rgb(210,48,120)"/>
      <stop offset=".726" stop-color="rgb(254,97,97)"/>
      <stop offset="1" stop-color="rgb(255,121,85)"/>
    </linearGradient>
    <path id="path-9" fill-rule="evenodd" d="M73.76155034 69.99999992c4.65022178 0 10.34227627 6.14351025 15.81472085 6.14351025 5.3321255 0 11.17589347-5.83249757 16.72793144-6.1316l.43769805-.01191025h.24941085c1.45790559 0 2.88526872.41646394 4.11302516 1.2000637 3.48167738 2.22213565 4.54244907 6.7923691 2.43285712 10.30372407l-.12280186.19760217-16.99131153 26.44678774c-.5941344.92476371-1.38222881 1.71025656-2.31005525 2.30242983-3.48167729 2.22213567-8.0902355 1.2702788-10.40741466-2.10858631l-.12869093-.19384352-1.40343348-2.18482509c-.00575856-.02148055-.01156415-.04305486-.01741678-.06472284l-.01902957-.21082922c-.65596382-1.04028189-1.03534483-2.27133915-1.03534483-3.59071316 0-2.5810502 1.45188635-4.8241135 3.58604906-5.9621203l4.47977475-3.30818007 3.65096432 9.86356098 2.60890958-2.27937416-.92977966-11.95756254 4.77769254-4.53887252c.86557534-.68252395 1.0133056-1.94508687.33091127-2.82676709-.68273788-.8814127-1.93244237-1.04206944-2.79801771-.35954549l-5.67515144 3.56087554-10.72484043-4.07866558-3.0044266 2.32676761 8.39777745 6.1359616c-1.6557372 1.24748573-3.09757983 2.28323112-4.3255278 3.10723633-1.0239988 1.07539746-2.46476966 1.74457122-4.06041694 1.74457122-1.78227484 0-3.37132577-.83486163-4.40409226-2.13820162-.06521334-.00099433-.1332539-.00133397-.20260438-.00161778l-6.22330864-9.68376356c-.78619497-1.22370366-1.2040382-2.6463551-1.2040382-4.0994482 0-4.12346441 3.29390989-7.4801345 7.40223538-7.59870069l.22488326-.00324105h.75286187z"/>
    <mask id="mask-10" maskContentUnits="userSpaceOnUse" maskUnits="userSpaceOnUse">
      <rect width="179" height="179" x="0" y="0" fill="black"/>
      <use fill="white" xlink:href="#path-9"/>
    </mask>
    <linearGradient id="linearGradient-12" x1="94.769" x2="47.34" y1="108.239" y2="42.079" gradientUnits="userSpaceOnUse">
      <stop offset="0" stop-color="rgb(0,0,0)" stop-opacity="0"/>
      <stop offset="1" stop-color="rgb(0,0,0)"/>
    </linearGradient>
  </defs>
  <g>
    <ellipse cx="89.5" cy="89.5" fill="rgb(244,50,127)" fill-opacity=".05" rx="89.5" ry="89.5"/>
    <ellipse cx="89.5" cy="89.5" fill="rgb(244,50,127)" fill-opacity=".1" rx="69.5" ry="69.5"/>
    <g>
      <use fill="rgb(244,50,127)" xlink:href="#ellipse-3"/>
      <use fill="url(#linearGradient-4)" xlink:href="#ellipse-3"/>
    </g>
    <g>
      <g>
        <path fill="rgb(0,0,0)" fill-rule="evenodd" d="M73.76155034 69.99999992c4.65022178 0 10.34227627 6.14351025 15.81472085 6.14351025 5.3321255 0 11.17589347-5.83249757 16.72793144-6.1316l.43769805-.01191025h.24941085c1.45790559 0 2.88526872.41646394 4.11302516 1.2000637 3.48167738 2.22213565 4.54244907 6.7923691 2.43285712 10.30372407l-.12280186.19760217-16.99131153 26.44678774c-.5941344.92476371-1.38222881 1.71025656-2.31005525 2.30242983-3.48167729 2.22213567-8.0902355 1.2702788-10.40741466-2.10858631l-.12869093-.19384352-1.40343348-2.18482509c-.00575856-.02148055-.01156415-.04305486-.01741678-.06472284l-.01902957-.21082922c-.65596382-1.04028189-1.03534483-2.27133915-1.03534483-3.59071316 0-2.5810502 1.45188635-4.8241135 3.58604906-5.9621203l4.47977475-3.30818007 3.65096432 9.86356098 2.60890958-2.27937416-.92977966-11.95756254 4.77769254-4.53887252c.86557534-.68252395 1.0133056-1.94508687.33091127-2.82676709-.68273788-.8814127-1.93244237-1.04206944-2.79801771-.35954549l-5.67515144 3.56087554-10.72484043-4.07866558-3.0044266 2.32676761 8.39777745 6.1359616c-1.6557372 1.24748573-3.09757983 2.28323112-4.3255278 3.10723633-1.0239988 1.07539746-2.46476966 1.74457122-4.06041694 1.74457122-1.78227484 0-3.37132577-.83486163-4.40409226-2.13820162-.06521334-.00099433-.1332539-.00133397-.20260438-.00161778l-6.22330864-9.68376356c-.78619497-1.22370366-1.2040382-2.6463551-1.2040382-4.0994482 0-4.12346441 3.29390989-7.4801345 7.40223538-7.59870069l.22488326-.00324105h.75286187z"/>
        <path fill="rgb(233,72,109)" fill-rule="evenodd" d="M73.76155034 69.99999992c4.65022178 0 10.34227627 6.14351025 15.81472085 6.14351025 5.3321255 0 11.17589347-5.83249757 16.72793144-6.1316l.43769805-.01191025h.24941085c1.45790559 0 2.88526872.41646394 4.11302516 1.2000637 3.48167738 2.22213565 4.54244907 6.7923691 2.43285712 10.30372407l-.12280186.19760217-16.99131153 26.44678774c-.5941344.92476371-1.38222881 1.71025656-2.31005525 2.30242983-3.48167729 2.22213567-8.0902355 1.2702788-10.40741466-2.10858631l-.12869093-.19384352-1.40343348-2.18482509c-.00575856-.02148055-.01156415-.04305486-.01741678-.06472284l-.01902957-.21082922c-.65596382-1.04028189-1.03534483-2.27133915-1.03534483-3.59071316 0-2.5810502 1.45188635-4.8241135 3.58604906-5.9621203l4.47977475-3.30818007 3.65096432 9.86356098 2.60890958-2.27937416-.92977966-11.95756254 4.77769254-4.53887252c.86557534-.68252395 1.0133056-1.94508687.33091127-2.82676709-.68273788-.8814127-1.93244237-1.04206944-2.79801771-.35954549l-5.67515144 3.56087554-10.72484043-4.07866558-3.0044266 2.32676761 8.39777745 6.1359616c-1.6557372 1.24748573-3.09757983 2.28323112-4.3255278 3.10723633-1.0239988 1.07539746-2.46476966 1.74457122-4.06041694 1.74457122-1.78227484 0-3.37132577-.83486163-4.40409226-2.13820162-.06521334-.00099433-.1332539-.00133397-.20260438-.00161778l-6.22330864-9.68376356c-.78619497-1.22370366-1.2040382-2.6463551-1.2040382-4.0994482 0-4.12346441 3.29390989-7.4801345 7.40223538-7.59870069l.22488326-.00324105h.75286187z"/>
        <path fill="url(#linearGradient-8)" fill-rule="evenodd" d="M73.76155034 69.99999992c4.65022178 0 10.34227627 6.14351025 15.81472085 6.14351025 5.3321255 0 11.17589347-5.83249757 16.72793144-6.1316l.43769805-.01191025h.24941085c1.45790559 0 2.88526872.41646394 4.11302516 1.2000637 3.48167738 2.22213565 4.54244907 6.7923691 2.43285712 10.30372407l-.12280186.19760217-16.99131153 26.44678774c-.5941344.92476371-1.38222881 1.71025656-2.31005525 2.30242983-3.48167729 2.22213567-8.0902355 1.2702788-10.40741466-2.10858631l-.12869093-.19384352-1.40343348-2.18482509c-.00575856-.02148055-.01156415-.04305486-.01741678-.06472284l-.01902957-.21082922c-.65596382-1.04028189-1.03534483-2.27133915-1.03534483-3.59071316 0-2.5810502 1.45188635-4.8241135 3.58604906-5.9621203l4.47977475-3.30818007 3.65096432 9.86356098 2.60890958-2.27937416-.92977966-11.95756254 4.77769254-4.53887252c.86557534-.68252395 1.0133056-1.94508687.33091127-2.82676709-.68273788-.8814127-1.93244237-1.04206944-2.79801771-.35954549l-5.67515144 3.56087554-10.72484043-4.07866558-3.0044266 2.32676761 8.39777745 6.1359616c-1.6557372 1.24748573-3.09757983 2.28323112-4.3255278 3.10723633-1.0239988 1.07539746-2.46476966 1.74457122-4.06041694 1.74457122-1.78227484 0-3.37132577-.83486163-4.40409226-2.13820162-.06521334-.00099433-.1332539-.00133397-.20260438-.00161778l-6.22330864-9.68376356c-.78619497-1.22370366-1.2040382-2.6463551-1.2040382-4.0994482 0-4.12346441 3.29390989-7.4801345 7.40223538-7.59870069l.22488326-.00324105h.75286187z"/>
      </g>
      <g>
        <use fill="rgb(255,255,255)" xlink:href="#path-9"/>
        <g mask="url(#mask-10)">
          <path fill="url(#linearGradient-12)" fill-rule="evenodd" d="M99.64043424 83.25697427c.94045635 1.2940494.81998517 2.63941529-.36141356 4.03609783-1.18139873 1.39668254-2.8572156 3.06979416-5.0274506 5.01933484l1.17582255 8.0985668c-.13501738 1.28565188-.39047594 2.23422546-.76637568 2.84572084-.37589975.61149547-.95168424 1.23124825-1.7273533 1.85925842l-3.52343806-8.31960508c-4.7677978 2.6768209-6.8873511 6.56687968-6.35865991 11.67017636.5286911 5.1032966.2643455 6.07723837-.79303678 2.92182523l-8.78395263-9.36055138 26.16585797-18.77082386z"/>
        </g>
      </g>
    </g>
  </g>
</svg>
