<svg xmlns="http://www.w3.org/2000/svg" width="24" height="24" viewBox="0 0 24 24">
  <g>
    <path fill="none" d="M0 0h24v24H0V0z"/>
    <path fill="rgb(170,170,170)" fill-rule="evenodd" d="M12 2C6.48001099 2 2 6.48000336 2 12c0 5.52000427 4.48001099 10 10 10s10-4.47999573 10-10c0-5.51999664-4.48001099-10-10-10zm4 14c.8999939 0 1.64001465.58000183 1.8999939 1.38999939C19.2000122 15.97000122 20 14.08000183 20 12c0-3.3500061-2.07000732-6.22000122-5-7.41000366V5c0 1.09999847-.8999939 2-2 2h-2v2c0 .55000305-.4500122 1-1 1H8v2h6c.5499878 0 1 .44999695 1 1v3h1zm-5 3.93000793C7.0499878 19.44000244 4 16.08000183 4 12c0-.61999512.07998657-1.20999146.20999146-1.78999329L9 15v1c0 1.1000061.8999939 2 2 2v1.93000793z"/>
  </g>
</svg>
