<svg xmlns="http://www.w3.org/2000/svg" width="24" height="24" viewBox="0 0 24 24">
  <g>
    <path fill="rgb(170,170,170)" fill-rule="evenodd" d="M4 6c-.55227661 0-1 .44771576-1 1s.44772339 1 1 1h16c.55227661 0 1-.44771576 1-1s-.44772339-1-1-1H4zm3 7c-.55227661 0-1-.44770813-1-1s.44772339-1 1-1h10c.55227661 0 1 .44770813 1 1s-.44772339 1-1 1H7zm3 4c0 .55229187.44772339 1 1 1h2c.55227661 0 1-.44770813 1-1s-.44772339-1-1-1h-2c-.55227661 0-1 .44770813-1 1z"/>
    <path fill="none" d="M0 0h24v24H0V0z"/>
  </g>
</svg>
