<svg xmlns="http://www.w3.org/2000/svg" xmlns:xlink="http://www.w3.org/1999/xlink" width="90" height="90" viewBox="0 0 90 90">
  <defs>
    <path id="path-1" fill-rule="evenodd" d="M45 17c-9.936 0-18 8.064-18 18s8.064 18 18 18 18-8.064 18-18-8.064-18-18-18z"/>
    <filter id="filter-2" width="200%" height="200%" x="-50%" y="-50%" color-interpolation-filters="sRGB" filterUnits="userSpaceOnUse">
      <feOffset dx="0" dy="10" in="SourceAlpha" result="shadow-1-feOffset-shadow"/>
      <feGaussianBlur in="shadow-1-feOffset-shadow" result="shadow-1-feGaussianBlur-shadow" stdDeviation="16.265"/>
      <feColorMatrix in="shadow-1-feGaussianBlur-shadow" result="shadow-1-feColorMatrix-shadow" type="matrix" values="0 0 0 0 0  0 0 0 0 0  0 0 0 0 0  0 0 0 0.1 0"/>
    </filter>
    <linearGradient id="linearGradient-3" x1="45.526" x2="45.526" y1="47.401" y2="17" gradientUnits="userSpaceOnUse">
      <stop offset="0" stop-color="rgb(210,48,120)"/>
      <stop offset=".726" stop-color="rgb(254,97,97)"/>
      <stop offset="1" stop-color="rgb(255,121,85)"/>
    </linearGradient>
    <linearGradient id="linearGradient-4" x1="45.526" x2="45.526" y1="47.401" y2="17" gradientUnits="userSpaceOnUse">
      <stop offset="0" stop-color="rgb(210,48,120)"/>
      <stop offset=".726" stop-color="rgb(254,97,97)"/>
      <stop offset="1" stop-color="rgb(255,121,85)"/>
    </linearGradient>
  </defs>
  <g>
    <g>
      <use fill="black" stroke="black" stroke-opacity="0" stroke-width="0" filter="url(#filter-2)" xlink:href="#path-1"/>
      <use fill="rgb(233,72,109)" xlink:href="#path-1"/>
      <use fill="url(#linearGradient-3)" xlink:href="#path-1"/>
      <use fill="rgb(233,72,109)" xlink:href="#path-1"/>
      <use fill="url(#linearGradient-4)" xlink:href="#path-1"/>
    </g>
    <g>
      <path fill="none" d="M33 25h24v24H33V25z"/>
      <path fill="rgb(255,255,255)" fill-rule="evenodd" d="M45 46.35l-1.45-1.32C38.4 40.36 35 37.28 35 33.5c0-3.08 2.42-5.5 5.5-5.5 1.74 0 3.41.81 4.5 2.09 1.09-1.28 2.76-2.09 4.5-2.09 3.08 0 5.5 2.42 5.5 5.5 0 3.78-3.4 6.86-8.55 11.54L45 46.35z"/>
    </g>
  </g>
</svg>
