<?xml version="1.0" encoding="UTF-8"?>
<svg width="44px" height="44px" viewBox="0 0 44 44" version="1.1" xmlns="http://www.w3.org/2000/svg" xmlns:xlink="http://www.w3.org/1999/xlink">
    <!-- Generator: Sketch 52.6 (67491) - http://www.bohemiancoding.com/sketch -->
    <title>check_circle_outline-24px (1)@3x</title>
    <desc>Created with Sketch.</desc>
    <defs>
        <linearGradient x1="51.4610648%" y1="84.4474871%" x2="51.4610648%" y2="0%" id="linearGradient-1">
            <stop stop-color="#D23078" offset="0%"></stop>
            <stop stop-color="#FE6161" offset="72.5625797%"></stop>
            <stop stop-color="#FF7955" offset="100%"></stop>
        </linearGradient>
        <path d="M12,0 C5.376,0 0,5.376 0,12 C0,18.624 5.376,24 12,24 C18.624,24 24,18.624 24,12 C24,5.376 18.624,0 12,0 Z" id="path-2"></path>
        <filter x="-70.8%" y="-54.2%" width="241.7%" height="241.7%" filterUnits="objectBoundingBox" id="filter-3">
            <feOffset dx="0" dy="4" in="SourceAlpha" result="shadowOffsetOuter1"></feOffset>
            <feGaussianBlur stdDeviation="5" in="shadowOffsetOuter1" result="shadowBlurOuter1"></feGaussianBlur>
            <feColorMatrix values="0 0 0 0 0   0 0 0 0 0   0 0 0 0 0  0 0 0 0.1 0" type="matrix" in="shadowBlurOuter1"></feColorMatrix>
        </filter>
    </defs>
    <g id="Travelling-Friends" stroke="none" stroke-width="1" fill="none" fill-rule="evenodd">
        <g id="User-Want-to-go" transform="translate(-184.000000, -1257.000000)">
            <g id="Card-Copy-2" transform="translate(20.000000, 869.000000)">
                <g id="Group">
                    <g id="options" transform="translate(-1.000000, 378.000000)">
                        <g id="want-to-go" transform="translate(152.000000, 16.000000)">
                            <g id="check_circle_outline-24px-(1)" transform="translate(23.000000, 0.000000)">
                                <g id="Shape">
                                    <use fill="black" fill-opacity="1" filter="url(#filter-3)" xlink:href="#path-2"></use>
                                    <use fill="#E9486D" fill-rule="evenodd" xlink:href="#path-2"></use>
                                    <use fill-opacity="0.75" fill="url(#linearGradient-1)" fill-rule="evenodd" xlink:href="#path-2"></use>
                                </g>
                                <path d="M14.7,7 C13.656,7 12.654,7.48555858 12,8.25286104 C11.346,7.48555858 10.344,7 9.3,7 C7.452,7 6,8.4506812 6,10.2970027 C6,12.5629428 8.04,14.4092643 11.13,17.2147139 L12,18 L12.87,17.2087193 C15.96,14.4092643 18,12.5629428 18,10.2970027 C18,8.4506812 16.548,7 14.7,7 Z" id="Shape" fill="#FFFFFF" fill-rule="nonzero"></path>
                            </g>
                        </g>
                    </g>
                </g>
            </g>
        </g>
    </g>
</svg>