<svg xmlns="http://www.w3.org/2000/svg" width="50" height="50" viewBox="0 0 50 50">
  <g>
    <ellipse cx="25" cy="25" fill="rgb(226,227,228)" rx="25" ry="25"/>
    <path fill="rgb(97,106,114)" fill-rule="evenodd" d="M34.33999634 16.0300293L34.5 16c.27999878 0 .5.2199707.5.5v15.11999512c0 .22998047-.1499939.41003418-.35998535.47998047L29 34l-6-2.09997559-5.33999634 2.0699463L17.5 34c-.27999878 0-.5-.2199707-.5-.5V18.38000488c0-.22998047.1499939-.41003418.35998535-.47998047L23 16l6 2.09997559 5.33999634-2.0699463zM23 29.89001465L29 32V20.10998535L23 18v11.89001465z"/>
    <path fill="none" d="M14 13h24v24H14V13z"/>
  </g>
</svg>
