<svg xmlns="http://www.w3.org/2000/svg" xmlns:xlink="http://www.w3.org/1999/xlink" width="80" height="80" viewBox="0 0 80 80">
  <defs>
    <ellipse id="ellipse-4" cx="40" cy="40" rx="25" ry="25"/>
    <filter id="filter-5" width="200%" height="200%" x="-50%" y="-50%" color-interpolation-filters="sRGB" filterUnits="userSpaceOnUse">
      <feOffset dx="0" dy="4" in="SourceAlpha" result="shadow-1-feOffset-shadow"/>
      <feGaussianBlur in="shadow-1-feOffset-shadow" result="shadow-1-feGaussianBlur-shadow" stdDeviation="6.024"/>
      <feColorMatrix in="shadow-1-feGaussianBlur-shadow" result="shadow-1-feColorMatrix-shadow" type="matrix" values="0 0 0 0 0  0 0 0 0 0  0 0 0 0 0  0 0 0 0.1 0"/>
    </filter>
    <linearGradient id="linearGradient-6" x1="40.731" x2="40.731" y1="57.224" y2="15" gradientUnits="userSpaceOnUse">
      <stop offset="0" stop-color="rgb(210,48,120)"/>
      <stop offset=".726" stop-color="rgb(254,97,97)"/>
      <stop offset="1" stop-color="rgb(255,121,85)"/>
    </linearGradient>
  </defs>
  <g>
    <ellipse cx="40" cy="40" fill="rgb(226,227,228)" rx="25" ry="25"/>
    <ellipse cx="40" cy="40" fill="rgb(244,50,127)" fill-opacity=".05" rx="40" ry="40"/>
    <ellipse cx="40" cy="40" fill="rgb(244,50,127)" fill-opacity=".1" rx="32" ry="32"/>
    <g>
      <use fill="black" stroke="black" stroke-opacity="0" stroke-width="0" filter="url(#filter-5)" xlink:href="#ellipse-4"/>
      <use fill="rgb(233,72,109)" xlink:href="#ellipse-4"/>
      <use fill="url(#linearGradient-6)" xlink:href="#ellipse-4"/>
    </g>
    <g>
      <rect width="24" height="24" x="28" y="26" fill="none" rx="0" ry="0"/>
      <path fill="rgb(255,255,255)" fill-rule="evenodd" d="M49 35c0 7-9 13-9 13s-9-6-9-13c0-4.97058105 4.0294342-9 9-9 4.97055054 0 9 4.02941895 9 9zm-9-3c1.6557312 0 3 1.34423828 3 3s-1.3442688 3-3 3c-1.65574646 0-3-1.34423828-3-3s1.34425354-3 3-3zm6 20c0-.55187988-.4480896-1-1-1H35c-.5519104 0-1 .44812012-1 1s.4480896 1 1 1h10c.5519104 0 1-.44812012 1-1z"/>
    </g>
  </g>
</svg>
