<svg xmlns="http://www.w3.org/2000/svg" width="50" height="50" viewBox="0 0 50 50">
  <g>
    <ellipse cx="25" cy="25" fill="rgb(226,227,228)" rx="25" ry="25"/>
    <path fill="rgb(97,106,114)" fill-rule="evenodd" d="M35 22c0 7-9 13-9 13s-9-6-9-13c0-4.97058105 4.0294342-9 9-9 4.97055054 0 9 4.02941895 9 9zm-9-3c1.6557312 0 3 1.34423828 3 3s-1.3442688 3-3 3c-1.65574646 0-3-1.34423828-3-3s1.34425354-3 3-3zm6 20c0-.55187988-.4480896-1-1-1H21c-.5519104 0-1 .44812012-1 1s.4480896 1 1 1h10c.5519104 0 1-.44812012 1-1z"/>
    <rect width="24" height="24" x="14" y="13" fill="none" rx="0" ry="0"/>
  </g>
</svg>
