<?xml version="1.0" encoding="UTF-8"?>
<svg width="76px" height="76px" viewBox="0 0 76 76" version="1.1" xmlns="http://www.w3.org/2000/svg" xmlns:xlink="http://www.w3.org/1999/xlink">
    <!-- Generator: Sketch 52.6 (67491) - http://www.bohemiancoding.com/sketch -->
    <title>check_circle_outline-24px (1)</title>
    <desc>Created with Sketch.</desc>
    <defs>
        <linearGradient x1="51.4610648%" y1="84.4474871%" x2="51.4610648%" y2="0%" id="linearGradient-1">
            <stop stop-color="#D23078" offset="0%"></stop>
            <stop stop-color="#FE6161" offset="72.5625797%"></stop>
            <stop stop-color="#FF7955" offset="100%"></stop>
        </linearGradient>
        <path d="M14,2 C7.376,2 2,7.376 2,14 C2,20.624 7.376,26 14,26 C20.624,26 26,20.624 26,14 C26,7.376 20.624,2 14,2 Z" id="path-2"></path>
        <filter x="-189.6%" y="-147.9%" width="479.2%" height="479.2%" filterUnits="objectBoundingBox" id="filter-3">
            <feOffset dx="0" dy="10" in="SourceAlpha" result="shadowOffsetOuter1"></feOffset>
            <feGaussianBlur stdDeviation="13.5" in="shadowOffsetOuter1" result="shadowBlurOuter1"></feGaussianBlur>
            <feColorMatrix values="0 0 0 0 0   0 0 0 0 0   0 0 0 0 0  0 0 0 0.1 0" type="matrix" in="shadowBlurOuter1"></feColorMatrix>
        </filter>
    </defs>
    <g id="All-Destination" stroke="none" stroke-width="1" fill="none" fill-rule="evenodd">
        <g id="All-Destination-Going" transform="translate(-271.000000, -567.000000)">
            <g id="Card" transform="translate(20.000000, 189.000000)">
                <g id="Group">
                    <g id="options" transform="translate(0.000000, 378.000000)">
                        <g id="going" transform="translate(270.000000, 14.000000)">
                            <g id="check_circle_outline-24px-(1)" transform="translate(5.000000, 0.000000)">
                                <path d="M0,0 L24,0 L24,24 L0,24 L0,0 Z M0,0 L24,0 L24,24 L0,24 L0,0 Z" id="Shape"></path>
                                <g id="Shape">
                                    <use fill="black" fill-opacity="1" filter="url(#filter-3)" xlink:href="#path-2"></use>
                                    <use fill="#E9486D" fill-rule="evenodd" xlink:href="#path-2"></use>
                                    <use fill-opacity="0.75" fill="url(#linearGradient-1)" fill-rule="evenodd" xlink:href="#path-2"></use>
                                </g>
                                <path d="M21,15.8421053 L21,14.5789474 L15.9473684,11.4210526 L15.9473684,7.94736842 C15.9473684,7.42315789 15.5242105,7 15,7 C14.4757895,7 14.0526316,7.42315789 14.0526316,7.94736842 L14.0526316,11.4210526 L9,14.5789474 L9,15.8421053 L14.0526316,14.2631579 L14.0526316,17.7368421 L12.7894737,18.6842105 L12.7894737,19.6315789 L15,19 L17.2105263,19.6315789 L17.2105263,18.6842105 L15.9473684,17.7368421 L15.9473684,14.2631579 L21,15.8421053 Z" id="Path" fill="#FFFFFF" transform="translate(15.000000, 13.315789) rotate(47.000000) translate(-15.000000, -13.315789) "></path>
                            </g>
                        </g>
                    </g>
                </g>
            </g>
        </g>
    </g>
</svg>