<svg xmlns="http://www.w3.org/2000/svg" xmlns:xlink="http://www.w3.org/1999/xlink" width="44" height="44" viewBox="0 0 44 44">
  <defs>
    <path id="path-2" fill-rule="evenodd" d="M10 18c0-6.62402344 5.37600708-12 12-12s12 5.37597656 12 12-5.37600708 12-12 12-12-5.37597656-12-12zm16.16818237 4.56536865l-.9237976.8614502-2.2911377-4.77209473-2.54049683 2.3690796.16860962 1.56988524-.69284057.64611817-1.04568482-2.04742432-1.96948242-1.18591308.6928711-.64611817 1.55432128.27770996 2.54049683-2.36901855-4.60064697-2.61846924.92382812-.8614502 5.75540161 1.54156495 2.54049683-2.36901856c.38339233-.35754394.98144531-.33660888 1.33895874.04675293.35751343.38336182.3366394.98144531-.04675293 1.33898926l-2.54049683 2.36901855 1.13635254 5.848938z"/>
    <filter id="filter-3" width="200%" height="200%" x="-50%" y="-50%" color-interpolation-filters="sRGB" filterUnits="userSpaceOnUse">
      <feOffset dx="0" dy="4" in="SourceAlpha" result="shadow-1-feOffset-shadow"/>
      <feGaussianBlur in="shadow-1-feOffset-shadow" result="shadow-1-feGaussianBlur-shadow" stdDeviation="6.024"/>
      <feColorMatrix in="shadow-1-feGaussianBlur-shadow" result="shadow-1-feColorMatrix-shadow" type="matrix" values="0 0 0 0 0  0 0 0 0 0  0 0 0 0 0  0 0 0 0.1 0"/>
    </filter>
  </defs>
  <g>
    <path fill="none"/>
    <g>
      <use fill="black" stroke="black" stroke-opacity="0" stroke-width="0" filter="url(#filter-3)" xlink:href="#path-2"/>
      <use fill="rgb(195,195,195)" xlink:href="#path-2"/>
    </g>
  </g>
</svg>
