<svg xmlns="http://www.w3.org/2000/svg" width="24" height="24" viewBox="0 0 24 24">
  <g>
    <rect width="24" height="24" x="0" y="0" fill="none" rx="0" ry="0"/>
    <g>
      <path fill="rgb(187,187,187)" fill-rule="evenodd" d="M16.67 13.13C18.04 14.06 19 15.32 19 17v3h4v-3c0-2.18-3.57-3.47-6.33-3.87z"/>
      <ellipse cx="9" cy="8" fill="rgb(187,187,187)" rx="4" ry="4"/>
      <path fill="rgb(187,187,187)" fill-rule="evenodd" d="M15 12c2.21 0 4-1.79 4-4s-1.79-4-4-4c-.47 0-.91.1-1.33.24C14.5 5.27 15 6.58 15 8s-.5 2.73-1.33 3.76c.42.14.86.24 1.33.24z"/>
      <path fill="rgb(187,187,187)" fill-rule="evenodd" d="M9 13c-2.67 0-8 1.34-8 4v3h16v-3c0-2.66-5.33-4-8-4z"/>
    </g>
  </g>
</svg>
