<svg xmlns="http://www.w3.org/2000/svg" xmlns:xlink="http://www.w3.org/1999/xlink" width="276" height="276" viewBox="0 0 276 276">
  <defs>
    <path id="path-3" fill-rule="evenodd" d="M113.42857143 87.35064935h58.23376623c2.2076601 0 4 1.7923399 4 4v107.58441559c0 2.2076601-1.7923399 4-4 4h-58.23376623c-2.2076601 0-4-1.7923399-4-4V91.35064935c0-2.2076601 1.7923399-4 4-4z"/>
    <filter id="filter-4" width="200%" height="200%" x="-50%" y="-50%" color-interpolation-filters="sRGB" filterUnits="userSpaceOnUse">
      <feOffset dx="0" dy="4" in="SourceAlpha" result="shadow-1-feOffset-shadow"/>
      <feGaussianBlur in="shadow-1-feOffset-shadow" result="shadow-1-feGaussianBlur-shadow" stdDeviation="6.024"/>
      <feColorMatrix in="shadow-1-feGaussianBlur-shadow" result="shadow-1-feColorMatrix-shadow" type="matrix" values="0 0 0 0 0.7058823529411765  0 0 0 0 0.6235294117647059  0 0 0 0 0.9725490196078431  0 0 0 0.1552666083916084 0"/>
    </filter>
    <path id="path-5" fill-rule="evenodd" d="M118.62337662 92.54545455h47.84415585c2.2076601 0 4 1.7923399 4 4v97.19480519c0 2.2076601-1.7923399 4-4 4h-47.84415585c-2.2076601 0-4-1.7923399-4-4v-97.1948052c0-2.2076601 1.7923399-4 4-4z"/>
    <linearGradient id="linearGradient-6" x1="143.361" x2="143.361" y1="181.38" y2="92.545" gradientUnits="userSpaceOnUse">
      <stop offset="0" stop-color="rgb(210,48,120)"/>
      <stop offset=".726" stop-color="rgb(254,97,97)"/>
      <stop offset="1" stop-color="rgb(255,121,85)"/>
    </linearGradient>
    <linearGradient id="linearGradient-8" x1="118.776" x2="148.662" y1="186.072" y2="-97.642" gradientUnits="userSpaceOnUse">
      <stop offset="0" stop-color="rgb(255,255,255)" stop-opacity="0"/>
      <stop offset="1" stop-color="rgb(255,255,255)"/>
    </linearGradient>
    <linearGradient id="linearGradient-16" x1="169.207" x2="182.315" y1="100.502" y2="86" gradientUnits="userSpaceOnUse">
      <stop offset="0" stop-color="rgb(210,48,120)"/>
      <stop offset=".726" stop-color="rgb(254,97,97)"/>
      <stop offset="1" stop-color="rgb(255,121,85)"/>
    </linearGradient>
    <path id="path-17" fill-rule="evenodd" d="M164.38077517 85.99999996c2.32511089 0 5.17113814 3.09032853 7.90736042 3.09032853 2.66606276 0 5.58794674-2.93388192 8.36396572-3.0843374l.21884903-.00599113h.12470542c.7289528 0 1.44263437.20949105 2.05651259.60365995 1.74083868 1.1177859 2.27122453 3.41671962 1.21642856 5.18301283l-.06140094.09939848-8.49565576 13.30334928c-.2970672.46517765-.6911144.86029882-1.15502763 1.15817575-1.74083864 1.11778592-4.04511775.63897978-5.20370733-1.06066795l-.06434546-.0975078-.70171674-1.09901783c-.00287928-.01080522-.00578208-.0216576-.00870839-.0325571l-.00951479-.106052c-.3279819-.52328598-.51767241-1.14253641-.51767241-1.80621222 0-1.29832827.72594318-2.42664128 1.79302453-2.99908516l2.23988737-1.66409151 1.82548217 4.96160055 1.30445478-1.1465782-.46488983-6.01493205 2.38884627-2.28315843c.43278767-.34332542.5066528-.97842393.16545564-1.42192958-.34136894-.4433711-.96622119-.52418517-1.39900886-.18085975l-2.83757572 1.7912032-5.3624202-2.05166363-1.50221331 1.17041822 4.19888873 3.08653138c-.8278686.62751433-1.54878992 1.14851835-2.1627639 1.56301214-.51199941.54094993-1.23238483.87755989-2.03020848.87755989-.89113741 0-1.68566288-.41995482-2.20204612-1.07556514-.03260667-.00050017-.06662696-.00067102-.1013022-.00081378l-3.11165432-4.87115828c-.39309748-.6155514-.6020191-1.33117816-.6020191-2.06211777 0-2.0741985 1.64695495-3.76268161 3.7011177-3.82232317l.11244163-.00163032h.37643093z"/>
    <mask id="mask-18" maskContentUnits="userSpaceOnUse" maskUnits="userSpaceOnUse">
      <rect width="276" height="276" x="0" y="0" fill="black"/>
      <use fill="white" xlink:href="#path-17"/>
    </mask>
    <linearGradient id="linearGradient-20" x1="174.885" x2="151.17" y1="105.235" y2="71.955" gradientUnits="userSpaceOnUse">
      <stop offset="0" stop-color="rgb(0,0,0)" stop-opacity="0"/>
      <stop offset="1" stop-color="rgb(0,0,0)"/>
    </linearGradient>
  </defs>
  <g>
    <ellipse cx="138" cy="138" fill="rgb(244,50,127)" fill-opacity=".05" rx="138" ry="138"/>
    <ellipse cx="138" cy="138" fill="rgb(244,50,127)" fill-opacity=".1" rx="100" ry="100"/>
    <g>
      <g>
        <use fill="black" stroke="black" stroke-opacity="0" stroke-width="0" filter="url(#filter-4)" xlink:href="#path-3"/>
        <use fill="rgb(255,254,254)" xlink:href="#path-3"/>
      </g>
      <g>
        <use fill="rgb(233,72,109)" xlink:href="#path-5"/>
        <use fill="url(#linearGradient-6)" xlink:href="#path-5"/>
      </g>
      <g opacity=".5">
        <path fill="url(#linearGradient-8)" fill-rule="evenodd" d="M170.05132276 118.8075606l-39.39043264 80.12248784h-19.9336174v-21.5826951l39.63047786-86.1006001S165.5140188 89.1389788 170.46753247 92c4.95351367 2.8610212 2.13385962 12.09410447 2.13385962 12.09410447l-2.55006933 14.71345613z"/>
      </g>
      <path fill="rgb(254,255,252)" fill-rule="evenodd" d="M129.31168831 89.94805195h25.16883117c1.65574507 0 3 1.34425492 3 3v1.79220779c0 1.65574507-1.34425493 3-3 3h-25.16883117c-1.65574507 0-3-1.34425493-3-3v-1.7922078c0-1.65574507 1.34425493-3 3-3z"/>
      <path fill="rgb(255,255,255)" fill-rule="evenodd" d="M135.1038961 191.24675325H149.987013c.55191502 0 1 .44808497 1 1v.5974026c0 .55191502-.44808498 1-1 1H135.1038961c-.55191502 0-1-.44808498-1-1v-.5974026c0-.55191503.44808498-1 1-1z"/>
    </g>
    <g opacity=".036">
      <ellipse cx="173" cy="102.442" fill="rgb(8,8,8)" rx="23" ry="23.442"/>
    </g>
    <ellipse cx="173" cy="95.442" fill="rgb(255,255,255)" rx="23" ry="23.442"/>
    <g>
      <g>
        <path fill="rgb(0,0,0)" fill-rule="evenodd" d="M164.38077517 85.99999996c2.32511089 0 5.17113814 3.09032853 7.90736042 3.09032853 2.66606276 0 5.58794674-2.93388192 8.36396572-3.0843374l.21884903-.00599113h.12470542c.7289528 0 1.44263437.20949105 2.05651259.60365995 1.74083868 1.1177859 2.27122453 3.41671962 1.21642856 5.18301283l-.06140094.09939848-8.49565576 13.30334928c-.2970672.46517765-.6911144.86029882-1.15502763 1.15817575-1.74083864 1.11778592-4.04511775.63897978-5.20370733-1.06066795l-.06434546-.0975078-.70171674-1.09901783c-.00287928-.01080522-.00578208-.0216576-.00870839-.0325571l-.00951479-.106052c-.3279819-.52328598-.51767241-1.14253641-.51767241-1.80621222 0-1.29832827.72594318-2.42664128 1.79302453-2.99908516l2.23988737-1.66409151 1.82548217 4.96160055 1.30445478-1.1465782-.46488983-6.01493205 2.38884627-2.28315843c.43278767-.34332542.5066528-.97842393.16545564-1.42192958-.34136894-.4433711-.96622119-.52418517-1.39900886-.18085975l-2.83757572 1.7912032-5.3624202-2.05166363-1.50221331 1.17041822 4.19888873 3.08653138c-.8278686.62751433-1.54878992 1.14851835-2.1627639 1.56301214-.51199941.54094993-1.23238483.87755989-2.03020848.87755989-.89113741 0-1.68566288-.41995482-2.20204612-1.07556514-.03260667-.00050017-.06662696-.00067102-.1013022-.00081378l-3.11165432-4.87115828c-.39309748-.6155514-.6020191-1.33117816-.6020191-2.06211777 0-2.0741985 1.64695495-3.76268161 3.7011177-3.82232317l.11244163-.00163032h.37643093z"/>
        <path fill="rgb(233,72,109)" fill-rule="evenodd" d="M164.38077517 85.99999996c2.32511089 0 5.17113814 3.09032853 7.90736042 3.09032853 2.66606276 0 5.58794674-2.93388192 8.36396572-3.0843374l.21884903-.00599113h.12470542c.7289528 0 1.44263437.20949105 2.05651259.60365995 1.74083868 1.1177859 2.27122453 3.41671962 1.21642856 5.18301283l-.06140094.09939848-8.49565576 13.30334928c-.2970672.46517765-.6911144.86029882-1.15502763 1.15817575-1.74083864 1.11778592-4.04511775.63897978-5.20370733-1.06066795l-.06434546-.0975078-.70171674-1.09901783c-.00287928-.01080522-.00578208-.0216576-.00870839-.0325571l-.00951479-.106052c-.3279819-.52328598-.51767241-1.14253641-.51767241-1.80621222 0-1.29832827.72594318-2.42664128 1.79302453-2.99908516l2.23988737-1.66409151 1.82548217 4.96160055 1.30445478-1.1465782-.46488983-6.01493205 2.38884627-2.28315843c.43278767-.34332542.5066528-.97842393.16545564-1.42192958-.34136894-.4433711-.96622119-.52418517-1.39900886-.18085975l-2.83757572 1.7912032-5.3624202-2.05166363-1.50221331 1.17041822 4.19888873 3.08653138c-.8278686.62751433-1.54878992 1.14851835-2.1627639 1.56301214-.51199941.54094993-1.23238483.87755989-2.03020848.87755989-.89113741 0-1.68566288-.41995482-2.20204612-1.07556514-.03260667-.00050017-.06662696-.00067102-.1013022-.00081378l-3.11165432-4.87115828c-.39309748-.6155514-.6020191-1.33117816-.6020191-2.06211777 0-2.0741985 1.64695495-3.76268161 3.7011177-3.82232317l.11244163-.00163032h.37643093z"/>
        <path fill="url(#linearGradient-16)" fill-rule="evenodd" d="M164.38077517 85.99999996c2.32511089 0 5.17113814 3.09032853 7.90736042 3.09032853 2.66606276 0 5.58794674-2.93388192 8.36396572-3.0843374l.21884903-.00599113h.12470542c.7289528 0 1.44263437.20949105 2.05651259.60365995 1.74083868 1.1177859 2.27122453 3.41671962 1.21642856 5.18301283l-.06140094.09939848-8.49565576 13.30334928c-.2970672.46517765-.6911144.86029882-1.15502763 1.15817575-1.74083864 1.11778592-4.04511775.63897978-5.20370733-1.06066795l-.06434546-.0975078-.70171674-1.09901783c-.00287928-.01080522-.00578208-.0216576-.00870839-.0325571l-.00951479-.106052c-.3279819-.52328598-.51767241-1.14253641-.51767241-1.80621222 0-1.29832827.72594318-2.42664128 1.79302453-2.99908516l2.23988737-1.66409151 1.82548217 4.96160055 1.30445478-1.1465782-.46488983-6.01493205 2.38884627-2.28315843c.43278767-.34332542.5066528-.97842393.16545564-1.42192958-.34136894-.4433711-.96622119-.52418517-1.39900886-.18085975l-2.83757572 1.7912032-5.3624202-2.05166363-1.50221331 1.17041822 4.19888873 3.08653138c-.8278686.62751433-1.54878992 1.14851835-2.1627639 1.56301214-.51199941.54094993-1.23238483.87755989-2.03020848.87755989-.89113741 0-1.68566288-.41995482-2.20204612-1.07556514-.03260667-.00050017-.06662696-.00067102-.1013022-.00081378l-3.11165432-4.87115828c-.39309748-.6155514-.6020191-1.33117816-.6020191-2.06211777 0-2.0741985 1.64695495-3.76268161 3.7011177-3.82232317l.11244163-.00163032h.37643093z"/>
      </g>
      <g>
        <use fill="none" xlink:href="#path-17"/>
        <g mask="url(#mask-18)">
          <path fill="url(#linearGradient-20)" fill-rule="evenodd" d="M177.32021712 92.66856636c.47022818.65093694.40999258 1.32768727-.18070678 2.03025107-.59069937.7025638-1.4286078 1.54417785-2.5137253 2.52484215l.58791127 4.07376744c-.06750868.6467128-.19523796 1.12386737-.38318784 1.43146377-.18794987.30759644-.47584211.6193465-.86367665.93525022l-1.76171902-4.18495484c-2.3838989 1.34650317-3.44367555 3.3032932-3.17932996 5.87037011.26434555 2.56707687.13217275 3.05699223-.3965184 1.46974605l-4.3919763-4.70857504 13.08292898-9.44216093z"/>
        </g>
      </g>
    </g>
    <g opacity=".404">
      <ellipse cx="87.5" cy="146.5" fill="rgb(255,255,255)" rx="17.5" ry="17.5"/>
      <rect width="38" height="7" x="72" y="157" fill="rgb(255,255,255)" rx="0" ry="0"/>
      <ellipse cx="107.5" cy="152.5" fill="rgb(255,255,255)" rx="11.5" ry="11.5"/>
      <ellipse cx="70.5" cy="154.5" fill="rgb(255,255,255)" rx="9.5" ry="9.5"/>
    </g>
    <g opacity=".404">
      <ellipse cx="176.5" cy="181.5" fill="rgb(255,255,255)" rx="17.5" ry="17.5"/>
      <rect width="38" height="7" x="161" y="192" fill="rgb(255,255,255)" rx="0" ry="0"/>
      <ellipse cx="196.5" cy="187.5" fill="rgb(255,255,255)" rx="11.5" ry="11.5"/>
      <ellipse cx="159.5" cy="189.5" fill="rgb(255,255,255)" rx="9.5" ry="9.5"/>
    </g>
    <g>
      <ellipse cx="110.5" cy="136.5" fill="rgb(255,255,255)" rx="17.5" ry="17.5"/>
      <rect width="39" height="7" x="94" y="147" fill="rgb(255,255,255)" rx="0" ry="0"/>
      <ellipse cx="130" cy="142.5" fill="rgb(255,255,255)" rx="12" ry="11.5"/>
      <ellipse cx="92.5" cy="144.5" fill="rgb(255,255,255)" rx="9.5" ry="9.5"/>
    </g>
  </g>
</svg>
